<?xml version="1.0" standalone="no"?>
<!DOCTYPE svg PUBLIC "-//W3C//DTD SVG 20010904//EN"
 "http://www.w3.org/TR/2001/REC-SVG-20010904/DTD/svg10.dtd">
<svg version="1.0" xmlns="http://www.w3.org/2000/svg"
 width="700.000000pt" height="700.000000pt" viewBox="0 0 700.000000 700.000000"
 preserveAspectRatio="xMidYMid meet">
<metadata>
Created by potrace 1.14, written by Peter Selinger 2001-2017
</metadata>
<g transform="translate(0.000000,700.000000) scale(0.100000,-0.100000)"
fill="#000000" stroke="none">
<path d="M0 3500 l0 -3500 3500 0 3500 0 0 3500 0 3500 -3500 0 -3500 0 0
-3500z m2631 2500 c226 -23 464 -95 629 -189 146 -84 146 -84 490 -92 330 -7
441 -19 636 -69 339 -88 714 -305 911 -530 115 -130 169 -211 250 -378 79
-163 90 -176 191 -215 121 -48 228 -142 331 -291 l54 -79 1 -89 c1 -104 3
-102 -129 -168 -261 -130 -459 -155 -1156 -148 l-465 5 -28 -72 c-75 -196
-271 -403 -413 -436 -44 -10 -206 -12 -252 -3 l-31 7 0 248 0 249 -22 0 c-13
0 -90 -16 -173 -35 -466 -109 -756 -250 -1007 -493 -142 -138 -205 -221 -277
-372 -53 -111 -161 -402 -161 -434 0 -7 33 -22 73 -34 224 -66 474 -317 622
-623 52 -107 79 -223 90 -379 l8 -100 -109 46 c-392 166 -454 184 -627 184
-66 0 -181 -7 -256 -16 l-136 -16 -142 -73 c-169 -88 -360 -201 -503 -300 -58
-40 -115 -75 -127 -79 -20 -6 -22 -2 -29 51 -10 79 12 396 36 516 39 200 103
366 195 509 60 92 99 138 181 210 52 46 72 58 99 58 l33 0 5 523 c5 566 12
662 73 948 104 493 329 924 662 1270 l103 107 -49 59 c-82 98 -202 203 -351
308 l-143 100 6 47 c9 79 28 104 114 147 213 107 498 150 793 121z"/>
</g>
</svg>
