<svg viewBox="0 0 752 752">
  <path
    d="m531.34 593.42-155.34-155.29-155.33 155.29c-8.2227 8.2578-19.395 12.898-31.043 12.898-11.652 0-22.824-4.6406-31.043-12.898-8.2578-8.2188-12.898-19.391-12.898-31.043s4.6406-22.82 12.898-31.043l155.29-155.34-155.29-155.33c-8.2578-8.2227-12.898-19.395-12.898-31.043 0-11.652 4.6406-22.824 12.898-31.043 8.2188-8.2578 19.391-12.898 31.043-12.898 11.648 0 22.82 4.6406 31.043 12.898l155.33 155.29 155.34-155.29c8.2227-8.2578 19.391-12.898 31.043-12.898s22.824 4.6406 31.043 12.898c8.2578 8.2188 12.898 19.391 12.898 31.043 0 11.648-4.6406 22.82-12.898 31.043l-155.29 155.33 155.29 155.34c8.2578 8.2227 12.898 19.391 12.898 31.043s-4.6406 22.824-12.898 31.043c-8.2188 8.2578-19.391 12.898-31.043 12.898s-22.82-4.6406-31.043-12.898z"
    stroke="#fff" stroke-width="30" />
</svg>